<?xml version="1.0" encoding="UTF-8" standalone="no"?>
<!-- Generator: Adobe Illustrator 23.0.2, SVG Export Plug-In . SVG Version: 6.00 Build 0)  -->

<svg
   version="1.1"
   id="Layer_1"
   x="0px"
   y="0px"
   viewBox="0 0 189 118"
   xml:space="preserve"
   sodipodi:docname="genius-gateway-logo.svg"
   inkscape:version="1.4 (86a8ad7, 2024-10-11)"
   width="189"
   height="118"
   xmlns:inkscape="http://www.inkscape.org/namespaces/inkscape"
   xmlns:sodipodi="http://sodipodi.sourceforge.net/DTD/sodipodi-0.dtd"
   xmlns="http://www.w3.org/2000/svg"
   xmlns:svg="http://www.w3.org/2000/svg"><defs
   id="defs2" /><sodipodi:namedview
   id="namedview2"
   pagecolor="#505050"
   bordercolor="#eeeeee"
   borderopacity="1"
   inkscape:showpageshadow="0"
   inkscape:pageopacity="0"
   inkscape:pagecheckerboard="0"
   inkscape:deskcolor="#505050"
   inkscape:zoom="2.4179456"
   inkscape:cx="74.650149"
   inkscape:cy="54.385012"
   inkscape:window-width="1920"
   inkscape:window-height="1009"
   inkscape:window-x="-8"
   inkscape:window-y="-8"
   inkscape:window-maximized="1"
   inkscape:current-layer="Layer_1" />
<style
   type="text/css"
   id="style1">
	.st0{fill:#FF3E00;}
	.st1{fill:#FFFFFF;}
</style>
<path
   class="st0"
   d="M 91.8,15.6 C 80.9,-0.1 59.2,-4.7 43.6,5.2 L 16.1,22.8 C 8.6,27.5 3.4,35.2 1.9,43.9 0.6,51.2 1.2,72.8 0.5,77 c -1.6,8.9 0.5,18.1 5.7,25.4 11,15.7 32.6,20.3 48.2,10.4 L 81.9,95.3 c 7.5,-4.7 12.7,-12.4 14.2,-21.1 1.3,-7.3 0.2,-14.8 -3.3,-21.3 2.4,-3.6 4,-7.6 4.7,-11.8 1.7,-9 -0.4,-18.2 -5.7,-25.5"
   id="path1"
   sodipodi:nodetypes="cccccccccccc"
   style="fill:#2ca089" />
<path
   id="path2"
   class="st1"
   d="m 62.119141,13.40625 c -1.667212,0.0353 -3.350782,0.262109 -5.019532,0.693359 -2,0.6 -3.899609,1.4 -5.599609,2.5 l -27.5,17.5 c -4.5,2.8 -7.699609,7.501172 -8.599609,12.701172 -0.207005,1.117826 -0.292316,2.237764 -0.306641,3.353516 C 14.526444,60.539673 14.370259,63.448974 14,79.900391 c -0.09579,5.4 0.3,10.898828 3.5,15.298828 5.2,7.500001 14.500391,11.001171 23.400391,8.701171 2,-0.6 3.899609,-1.4 5.599609,-2.5 L 74,83.900391 c 4.5,-2.8 7.699609,-7.501172 8.599609,-12.701172 0.9,-5.4 -0.3,-10.898828 -3.5,-15.298828 -5.2,-7.5 -14.50039,-11.001172 -23.40039,-8.701172 -2,0.6 -3.89961,1.4 -5.59961,2.5 0,0 -3.668115,2.011433 -6.08789,3.884765 -10.573107,6.495841 -0.677542,17.2593 5.251268,13.281091 l 9.037794,-5.165856 C 58.800783,61.399219 59.4,61.2 60,61 c 0.675,-0.175 1.356249,-0.244141 2.023438,-0.212891 2.001562,0.09375 3.876171,1.0875 5.076171,2.8125 0.9,1.3 1.3,2.99961 1,4.59961 C 67.799606,69.799219 66.9,71.1 65.5,72 L 38.099609,89.5 c -0.5,0.3 -1.099218,0.499219 -1.699218,0.699219 -2.7,0.7 -5.49961,-0.399219 -7.09961,-2.699219 C 28.931994,86.94682 28.657736,86.327046 28.46875,85.685547 28.137329,80.421933 28.4186,75.143444 28.51367,69.875 c 0.09676,-4.961899 0.908154,-16.869933 0.908154,-16.869933 0.207644,-1.376394 0.212327,-2.21597 0.378959,-3.104677 0.3,-1.6 1.19961,-2.900782 2.59961,-3.800782 l 27.40039,-17.5 c 0.5,-0.3 1.099219,-0.499218 1.699219,-0.699218 2.7,-0.7 5.499609,0.299609 7.099609,2.599609 0.8,1.2 1.19961,2.699609 1.09961,4.099609 l -0.09961,1 1,0.300782 c 3.9,1.2 7.500782,3.00039 10.800782,5.40039 l 1.40039,1 0.5,-1.601562 c 0.3,-0.9 0.499219,-1.69961 0.699219,-2.59961 0.9,-5.4 -0.3,-10.898828 -3.5,-15.298828 -4.225,-6.09375 -11.156274,-9.54751 -18.380859,-9.394531 z"
   sodipodi:nodetypes="sccccccccccccccccccscscccccccsccccccccccccss" /><path
   class="st0"
   d="m 182.72271,15.58641 c -10.9,-15.69999994 -32.6,-20.2999999 -48.20001,-10.3999999 l -27.5,17.5999999 c -7.499995,4.7 -12.699995,12.4 -14.199995,21.1 -1.3,7.3 -0.7,28.9 -1.4,33.100002 -1.6,8.9 0.5,18.1 5.7,25.399998 10.999995,15.7 32.599995,20.3 48.200005,10.4 l 27.5,-17.499998 c 7.5,-4.7 12.7,-12.4 14.2,-21.100002 1.3,-7.3 0.2,-14.8 -3.3,-21.3 2.4,-3.6 4,-7.6 4.7,-11.8 1.7,-9 -0.4,-18.2 -5.7,-25.5"
   id="path1-9"
   sodipodi:nodetypes="cccccccccccc"
   style="fill:#2ca089" /><path
   id="path2-4"
   class="st1"
   d="m 153.04185,13.39266 c -1.66721,0.0353 -3.35078,0.262109 -5.01953,0.693359 -2,0.6 -3.89962,1.4 -5.59962,2.5 l -27.5,17.5 c -4.5,2.8 -7.6996,7.501172 -8.5996,12.701172 -0.20701,1.117826 -0.29232,2.237764 -0.30665,3.353516 -0.5673,10.385376 -0.72349,13.294677 -1.09375,29.746095 -0.0958,5.4 0.3,10.89883 3.5,15.29883 5.2,7.499998 14.5004,11.001168 23.4004,8.701168 2,-0.6 3.8996,-1.4 5.5996,-2.5 l 27.50001,-17.499998 c 4.5,-2.8 7.69961,-7.50117 8.59961,-12.701173 0.9,-5.4 -0.3,-10.898828 -3.5,-15.298828 -5.2,-7.5 -14.50039,-11.001172 -23.40039,-8.701172 -2.00001,0.6 -3.89962,1.4 -5.59962,2.5 0,0 -3.66811,2.011433 -6.08789,3.884765 -10.5731,6.495841 -0.67754,17.2593 5.25127,13.281091 l 9.0378,-5.165856 c 0.5,-0.3 1.09922,-0.499219 1.69922,-0.699219 0.675,-0.175 1.35625,-0.244141 2.02344,-0.212891 2.00156,0.09375 3.87617,1.0875 5.07617,2.8125 0.9,1.3 1.3,2.99961 1,4.59961 -0.30001,1.6 -1.19961,2.900781 -2.59961,3.800781 l -27.4004,17.500002 c -0.5,0.3 -1.09921,0.49922 -1.69921,0.69922 -2.7,0.7 -5.49961,-0.39922 -7.09961,-2.69922 -0.36879,-0.55318 -0.64305,-1.17296 -0.83204,-1.81446 -0.33142,-5.26361 -0.0502,-10.5421 0.0449,-15.810542 0.0968,-4.961899 0.90816,-16.869933 0.90816,-16.869933 0.20764,-1.376394 0.21233,-2.21597 0.37896,-3.104677 0.3,-1.6 1.19961,-2.900782 2.59961,-3.800782 l 27.40039,-17.5 c 0.5,-0.3 1.09922,-0.499218 1.69922,-0.699218 2.7,-0.7 5.49961,0.299609 7.09961,2.599609 0.8,1.2 1.19961,2.699609 1.09961,4.099609 l -0.0996,1 1,0.300782 c 3.9,1.2 7.50078,3.00039 10.80078,5.40039 l 1.40039,1 0.5,-1.601562 c 0.3,-0.9 0.49922,-1.69961 0.69922,-2.59961 0.9,-5.4 -0.3,-10.898828 -3.5,-15.298828 -4.225,-6.09375 -11.15627,-9.54751 -18.38086,-9.394531 z"
   sodipodi:nodetypes="sccccccccccccccccccscscccccccsccccccccccccss"
   style="fill:#ffffff" />
<style
   type="text/css"
   id="style1-8">
	.st0{fill:#FF3E00;}
	.st1{fill:#FFFFFF;}
</style></svg>
