<?xml version="1.0" encoding="UTF-8" standalone="no"?>
<!-- Created with Inkscape (http://www.inkscape.org/) -->

<svg
   width="24"
   height="24"
   viewBox="0 0 24 24"
   version="1.1"
   id="svg1"
   xml:space="preserve"
   inkscape:version="1.4 (86a8ad7, 2024-10-11)"
   sodipodi:docname="home-assistant.svg"
   xmlns:inkscape="http://www.inkscape.org/namespaces/inkscape"
   xmlns:sodipodi="http://sodipodi.sourceforge.net/DTD/sodipodi-0.dtd"
   xmlns="http://www.w3.org/2000/svg"
   xmlns:svg="http://www.w3.org/2000/svg"><sodipodi:namedview
     id="namedview1"
     pagecolor="#505050"
     bordercolor="#eeeeee"
     borderopacity="1"
     inkscape:showpageshadow="0"
     inkscape:pageopacity="0"
     inkscape:pagecheckerboard="true"
     inkscape:deskcolor="#505050"
     inkscape:document-units="px"
     inkscape:zoom="16.267265"
     inkscape:cx="18.718574"
     inkscape:cy="3.6576523"
     inkscape:window-width="1920"
     inkscape:window-height="1009"
     inkscape:window-x="-8"
     inkscape:window-y="-8"
     inkscape:window-maximized="1"
     inkscape:current-layer="layer1" /><defs
     id="defs1" /><g
     inkscape:label="Ebene 1"
     inkscape:groupmode="layer"
     id="layer1"><path
       d="m 22.62242,21.018514 c 0,0.730286 -0.597504,1.327808 -1.327809,1.327808 H 2.7053883 c -0.7302862,0 -1.3278084,-0.597522 -1.3278084,-1.327808 v -7.966813 c 0,-0.730286 0.4222543,-1.74995 0.9392109,-2.266906 L 11.060798,2.0407316 c 0.516072,-0.5160719 1.361447,-0.5160719 1.877519,0 l 8.74491,8.7448534 c 0.516072,0.516072 0.939193,1.536715 0.939193,2.267001 v 7.966812 z"
       fill="#f2f4f9"
       id="path1"
       style="stroke-width:0.999999" /><path
       d="M 21.683235,10.784428 12.939209,2.0403646 c -0.516072,-0.5160719 -1.361446,-0.5160719 -1.877518,0 L 2.3167983,10.784428 C 1.8007264,11.3005 1.3775874,12.321048 1.3775874,13.051334 v 7.966813 c 0,0.730286 0.5975222,1.327808 1.3278084,1.327808 H 10.873152 L 7.2765736,18.749377 c -0.1850375,0.06381 -0.3824045,0.09995 -0.5877716,0.09995 -1.0002751,0 -1.8146657,-0.814391 -1.8146657,-1.814666 0,-1.000275 0.8143906,-1.814666 1.8146657,-1.814666 1.0002752,0 1.8146658,0.814391 1.8146658,1.814666 0,0.206252 -0.03633,0.403657 -0.099954,0.588656 l 2.7998822,2.799901 V 10.165503 C 10.601469,9.869839 10.185427,9.2519683 10.185427,8.5376071 c 0,-1.0002752 0.814371,-1.814647 1.814665,-1.814647 1.000276,0 1.814647,0.8143718 1.814647,1.814647 0,0.7143612 -0.416042,1.3322319 -1.017969,1.6278959 v 7.194022 l 2.784842,-2.784841 c -0.05497,-0.173555 -0.08508,-0.357614 -0.08508,-0.548826 0,-1.000275 0.814391,-1.814665 1.814666,-1.814665 1.000275,0 1.814666,0.81439 1.814666,1.814665 0,1.000275 -0.814391,1.814666 -1.814666,1.814666 -0.221292,0 -0.431967,-0.0416 -0.627602,-0.11426 L 12.79668,19.61318 v 2.733509 h 8.497924 c 0.730305,0 1.327809,-0.597522 1.327809,-1.327808 v -7.966813 c 0,-0.730286 -0.422236,-1.750044 -0.939192,-2.267 z"
       fill="#18bcf2"
       id="path2"
       style="stroke-width:0.999999" /></g></svg>
