<?xml version="1.0" encoding="UTF-8" standalone="no"?>

<svg
   stroke="currentColor"
   viewBox="0 0 24 24"
   version="1.1"
   id="svg1"
   xml:space="preserve"
   width="24"
   height="24"
   xmlns="http://www.w3.org/2000/svg">
<defs id="defs1" />
<path
     id="path1"
     style="display:inline;fill:none;stroke-width:2;stroke-linecap:round;stroke-linejoin:round;stroke-dasharray:none"
     d="m 1.017927,15.686472 c 0,-2.050553 4.9208545,-3.712855 10.991037,-3.712855 C 18.079146,11.973617 23,13.635919 23,15.686472 m 0,0 c 0,2.050552 -4.920854,3.712853 -10.991036,3.712854 -6.0701825,0 -10.991037,-1.662301 -10.991037,-3.712854" />
<path
     style="fill:none;stroke-width:2;stroke-linecap:round;stroke-linejoin:round;stroke-dasharray:none"
     d="M 7.5825276,9.1727389 V 11.814115"
     id="path13" />
<path
     style="fill:none;stroke-width:2;stroke-linecap:round;stroke-linejoin:round;stroke-dasharray:none"
     d="M 16.589535,9.1319035 V 11.670989"
     id="path17" />
<path
     id="path3"
     style="display:inline;fill:none;stroke-width:2;stroke-linecap:round;stroke-linejoin:round;stroke-dasharray:none"
     d="M 1.0048467,15.598874 H 1 V 8.2128548 C 1,6.1623016 5.9208544,4.5 11.991037,4.5 c 6.070182,5e-7 10.991036,1.662302 10.991036,3.7128548 v 7.4230062" />
<path
     id="path7"
     style="display:inline;fill:none;stroke-width:2;stroke-linecap:round;stroke-linejoin:round;stroke-dasharray:none"
     d="m 1,12.365327 c 0,-2.050553 4.9208544,-3.7128549 10.991037,-3.7128549 6.070182,5e-7 10.991036,1.6623019 10.991036,3.7128549" />
<path
     style="fill:none;stroke:#000000;stroke-width:2;stroke-linecap:round;stroke-linejoin:round;stroke-dasharray:none"
     d="m 2.4289546,15.675675 h 4.1823"
     id="path4" />
<ellipse
     style="fill:none;stroke:#000000;stroke-width:2;stroke-linecap:round;stroke-linejoin:round;stroke-dasharray:none"
     id="path6"
     cx="10.373387"
     cy="15.030303"
     rx="1.3549143"
     ry="0.50972468" />
</svg>
